<?xml version="1.0" encoding="UTF-8"?>
<svg id="Layer_2" data-name="Layer 2" xmlns="http://www.w3.org/2000/svg" viewBox="0 0 53.44 48.17">
  <g id="Layer_1-2" data-name="Layer 1">
    <path d="m51.94,22.02c-4.09-.93-7.8-1.32-10.97-1.43-1.35-4.71-2.79-8.57-5.66-12.81C31.04,1.48,27.74.45,26.08.15c-3.42-.61-6.3.77-7.06,1.14-3.31,1.64-5.03,4.4-6.26,6.61-4.38,7.81-6.37,15.11-7.07,17.66-1.17,4.26-3.07,11.05-5.69,19.82.85.69,2.47,1.8,4.78,2.39,2.26.58,4.17.41,5.24.23,1.42-3.23,4.59-9.24,11.05-14.35,4.38-3.47,8.72-5.3,11.64-6.24,1.89,6.93,3.62,13.72,5.22,20.36,1.15.22,3.49.5,6.15-.45,1.54-.55,2.67-1.33,3.42-1.94-1.1-4.32-2.85-11.1-5.1-19.59,4.03-.09,7.29.52,9.32,1.02.94-.35,1.6-1.19,1.71-2.16.11-1.08-.48-2.14-1.49-2.63Zm-33.26,2.28c-1.41.57-2.63,1.07-3.68,1.55.54-1.82,1.12-3.66,1.74-5.53,1.55-4.67,3.22-9.03,4.94-13.08.36-.86,1.07-1.56,1.97-1.79.12-.03.25-.05.38-.07.13-.01.25-.02.37-.02,1.2.03,2.21.91,2.56,2.06,1.35,4.46,2.69,9.02,4,13.65-6.4.89-10.81,2.61-12.28,3.21Z"/>
  </g>
</svg>