<?xml version="1.0" encoding="UTF-8"?>
<svg id="Layer_2" data-name="Layer 2" xmlns="http://www.w3.org/2000/svg" viewBox="0 0 62.85 63.49">
  <g id="Layer_1-2" data-name="Layer 1">
    <g>
      <path d="m31.51,4.46c-13.73-.16-25.75,10.32-27.57,23.81-2.03,15.03,9.11,29.88,24.95,31.22,15.54,1.32,29.26-10.9,29.84-26.43.59-15.54-12.2-28.41-27.22-28.6Zm-8.66,7.64c4.31-.28,8.16,3.23,8.31,7.63.16,4.35-3.35,8.17-7.74,8.2-4.5.03-8-3.92-7.86-8.2.12-3.92,3.28-7.38,7.29-7.63Zm-3.26,36.1c-4.49.03-8-3.92-7.86-8.2.13-3.92,3.28-7.38,7.29-7.63,4.32-.28,8.16,3.23,8.32,7.63.15,4.35-3.35,8.17-7.75,8.2Zm7.99-15.98c.06-1.8,1.51-3.39,3.35-3.51,1.99-.13,3.76,1.49,3.83,3.51.07,2-1.54,3.76-3.56,3.78-2.07.01-3.69-1.81-3.62-3.78Zm11.51,20.33c-4.5.03-8-3.92-7.86-8.2.13-3.93,3.28-7.38,7.29-7.64,4.31-.27,8.16,3.24,8.32,7.64.15,4.34-3.35,8.17-7.75,8.2Zm4.31-21.04c-4.49.03-8-3.92-7.86-8.2.13-3.93,3.28-7.38,7.29-7.64,4.32-.27,8.16,3.24,8.32,7.64.15,4.34-3.35,8.17-7.75,8.2Z"/>
      <path d="m26.99,1.79c-3.79.52-7.52,1.77-10.98,3.81-3.51,2.07-6.47,4.79-8.79,7.93.11-.37.24-.73.36-1.09C10.75,3.24,12.19,1.64,13.96.7c2.1-1.11,4.06-.98,12.76,1.03.09.02.18.04.27.06Z"/>
      <path d="m13.17,55.85c-.45-.15-.91-.3-1.37-.46-7.8-2.64-9.7-3.64-10.94-5.81-1.39-2.44-1.02-4.71.57-12.42.02-.11.05-.22.07-.33.51,3.16,1.54,6.28,3.12,9.22,2.14,3.99,5.09,7.28,8.55,9.8Z"/>
      <path d="m55.14,50.45s-.03.1-.05.15c-2.76,8.73-3.52,10.72-5.81,12.08-1.92,1.14-3.88,1.22-13.22-.68-.49-.1-.98-.2-1.48-.3,4.43-.43,8.8-1.82,12.76-4.26,3.05-1.88,5.67-4.26,7.8-6.99Z"/>
      <path d="m61.58,26.79c-.04.22-.08.43-.13.64-.43-3.34-1.44-6.64-3.06-9.75-1.91-3.66-4.51-6.76-7.56-9.24,7.8,2.35,9.69,2.93,11.09,5.14,1.13,1.77,1.47,3.86-.34,13.21Z"/>
    </g>
  </g>
</svg>