<?xml version="1.0" encoding="UTF-8"?>
<svg id="Layer_2" data-name="Layer 2" xmlns="http://www.w3.org/2000/svg" viewBox="0 0 50.43 50.42">

  <g id="Layer_1-2" data-name="Layer 1">
    <g>
      <path class="cls-1" d="m32.7,4.56l.1.2,16.8,33.61c.53,1.1.83,2.34.83,3.64,0,4.64-3.76,8.4-8.4,8.4-3.19,0-5.97-1.78-7.39-4.4l-.02-.03c-.08-.14-.15-.28-.21-.43h0S17.79,12.33,17.79,12.33v-.02c-.06-.09-.1-.18-.14-.27l-.02-.03c-.52-1.09-.81-2.32-.81-3.61,0-3.22,1.81-6.02,4.47-7.43.11-.06.23-.12.34-.17h.01C22.73.29,23.94,0,25.22,0c3.26,0,6.08,1.85,7.47,4.56Z"/>
      <path class="cls-1" d="m16.8,42.02c0,4.64-3.76,8.4-8.4,8.4S0,46.66,0,42.02s3.76-8.4,8.4-8.4,8.4,3.76,8.4,8.4Z"/>
    </g>
  </g>
</svg>