<?xml version="1.0" encoding="UTF-8"?>
<svg id="Layer_2" data-name="Layer 2" xmlns="http://www.w3.org/2000/svg" viewBox="0 0 56.34 46.17">

  <g id="Layer_1-2" data-name="Layer 1">
    <g>
      <path class="cls-1" d="m26.77,20.58c-1.72.06-4.02.14-5.62-1.44-1.5-1.48-1.54-3.6-1.56-4.41-.1-4.84,3.92-8.41,5.39-9.72C30.42.18,36.86.01,37.86,0c5.42-.06,9.22,2.17,11.28,3.42,5.03,3.04,6.43,6.49,6.72,7.25.83,2.21.37,3.18.15,3.53-.82,1.33-2.77,1.41-3.19,1.43-2.37.1-4.39-1.38-5.92-2.49-1.88-1.37-2.62-2.46-3.91-2.3-.84.1-1.4.67-1.71.97-1.13,1.13-4.69,4.72-6.49,6.08-3.31,2.49-6.93,2.66-8.01,2.7Z"/>
      <path class="cls-1" d="m7.18,15.59c-1.72-.06-4.02-.14-5.62,1.44C.06,18.52.02,20.63,0,21.44c-.1,4.84,3.92,8.41,5.39,9.72,5.43,4.83,11.87,5,12.87,5.01,5.42.06,9.22-2.17,11.28-3.42,5.03-3.04,6.43-6.49,6.72-7.25.83-2.21.37-3.18.15-3.53-.82-1.33-2.77-1.41-3.19-1.43-2.37-.1-4.39,1.38-5.92,2.49-1.88,1.37-2.62,2.46-3.91,2.3-.84-.1-1.4-.67-1.71-.97-1.13-1.13-4.69-4.72-6.49-6.08-3.31-2.49-6.93-2.66-8.01-2.7Z"/>
      <path class="cls-1" d="m28.38,36.19c.83-.03,1.95-.07,2.72.7.73.72.75,1.74.75,2.14.05,2.34-1.9,4.08-2.61,4.71-2.63,2.34-5.75,2.42-6.24,2.43-2.62.03-4.47-1.05-5.47-1.66-2.44-1.47-3.12-3.14-3.26-3.52-.4-1.07-.18-1.54-.07-1.71.4-.64,1.34-.68,1.55-.69,1.15-.05,2.13.67,2.87,1.21.91.67,1.27,1.19,1.9,1.12.41-.05.68-.32.83-.47.55-.55,2.27-2.29,3.15-2.94,1.61-1.21,3.36-1.29,3.88-1.31Z"/>
      <path class="cls-1" d="m39.94,17.49c.46-.97,1.07-2.25,2.39-2.69,1.24-.4,2.42.17,2.87.39,2.69,1.32,3.52,4.54,3.82,5.73,1.12,4.36-.61,7.95-.89,8.51-1.5,3-3.81,4.46-5.08,5.24-3.1,1.91-5.4,1.7-5.9,1.64-1.45-.17-1.85-.7-1.99-.92-.5-.83,0-1.93.12-2.16.62-1.33,2-2.03,3.05-2.55,1.29-.65,2.1-.75,2.38-1.5.18-.49.03-.96-.05-1.22-.3-.94-1.27-3.92-1.5-5.3-.43-2.53.5-4.57.79-5.18Z"/>
    </g>
  </g>
</svg>