<?xml version="1.0" encoding="UTF-8"?>
<svg id="Layer_2" data-name="Layer 2" xmlns="http://www.w3.org/2000/svg" viewBox="0 0 61.46 66.62">
  <g id="Layer_1-2" data-name="Layer 1">
    <path d="m54.42,11.5L37.77,1.89c-4.36-2.52-9.72-2.52-14.08,0L7.04,11.5C2.68,14.02,0,18.67,0,23.7v19.22c0,5.03,2.68,9.68,7.04,12.2l16.65,9.61c4.36,2.52,9.72,2.52,14.08,0l16.65-9.61c4.36-2.52,7.04-7.17,7.04-12.2v-19.22c0-5.03-2.68-9.68-7.04-12.2Zm-1.98,30.79c0,2.25-1.21,4.34-3.16,5.47l-15.5,8.94c-1.95,1.13-4.36,1.13-6.31,0l-15.5-8.94c-1.95-1.13-3.16-3.22-3.16-5.47v-17.89c0-2.26,1.21-4.35,3.16-5.47l15.5-8.95c1.95-1.13,4.36-1.13,6.31,0l15.5,8.95c1.95,1.12,3.16,3.21,3.16,5.47v17.89Z"/>
  </g>
</svg>