<?xml version="1.0" encoding="UTF-8"?>
<svg id="Layer_2" data-name="Layer 2" xmlns="http://www.w3.org/2000/svg" viewBox="0 0 63.65 62.43">

  <g id="Layer_1-2" data-name="Layer 1">
    <g>
      <path class="cls-1" d="m36.64,8.33c-.35-.02-.71-.02-1.06-.03.38.01.74.02,1.06.03Z"/>
      <path class="cls-1" d="m34.93,8.29c-2.05-.04-4.1-.05-6.15-.04,2.34,0,4.48.02,6.15.04Z"/>
      <path class="cls-1" d="m63.63,39.21c-.4,7.3-6.25,13.49-13.48,14.32-2.47.28-4.94.03-7.41.17v8.7c-1.43-1-2.68-1.88-3.93-2.76-1.26.89-2.52,1.77-3.96,2.79v-8.74c-10.5,0-21.01,0-31.51-.02q-1.3,0-1.04-1.22c.91-4.19,4.39-7.01,8.67-7.02,7.96-.01,15.92-.01,23.88-.02-.01-2-.01-4.02-.01-6.03-6.87,0-16.31-.07-21.37-.07-.81,0-1.27-.36-1.27-1.21s.62-1.18,1.52-1.18c7.05,0,14.1.03,21.15.04,2.62,0,5.24,0,7.86.01.95,0,1.72.13,1.72,1.13s-.59,1.29-1.69,1.29c-.01,2.01-.01,4.02-.01,6.03,2.31-.06,4.66.3,6.95-.19,3.81-.81,6.12-4.11,5.7-7.95-.39-3.62-3.46-6.29-7.27-6.29-10.28-.01-20.57,0-30.85-.01-2.48,0-4.3-1.52-4.46-3.7-.19-2.62,1.57-4.53,4.25-4.54,6.47-.02,12.94.01,19.41-.01,2.8-.01,4.97-1.25,6.41-3.64,2.71-4.51-.46-10.59-5.72-10.75-.16-.01-28.34-.07-28.34-.07C4.39,8.26.81,5.22.04.86-.06.27,0,.03.69.04c12.24.02,24.49-.13,36.74.07,10.45.18,17.44,11.37,13.49,21.2q-.6,1.49,1,1.87c7.22,1.73,12.14,8.46,11.71,16.03Z"/>
      <path class="cls-1" d="m12.22,15.54c-.08-.82.57-1.28,1.76-1.28,5.34,0,10.69,0,16.03.01,1.11,0,1.67.46,1.6,1.31-.07.94-.71,1.16-1.52,1.16-2.73,0-13.48,0-16.14.01-.88,0-1.63-.16-1.73-1.21Z"/>
    </g>
  </g>
</svg>