<?xml version="1.0" encoding="UTF-8"?>
<svg id="Layer_2" data-name="Layer 2" xmlns="http://www.w3.org/2000/svg" viewBox="0 0 54.9 55.14">
  <g id="Layer_1-2" data-name="Layer 1">
    <path d="m52.59,17.84c-1.24-1.49-2.85-2.39-13.24-2.74-.49-1.87-1.3-4.16-2.68-6.56-1.83-3.16-4.93-8.54-9.23-8.54-3.97,0-6.89,4.58-8.77,7.52-1.76,2.75-2.68,5.44-3.19,7.54-10,.32-11.58,1.22-12.83,2.65-5.82,6.7-1.43,21.95,7.25,30.14,1.78,1.68,8.14,7.49,17.65,7.29,9.41-.2,15.43-6.12,17.32-7.98,8.14-8,13.25-22.68,7.72-29.32Zm-30.17-8.1c1.08-1.9,2.76-4.84,5.03-4.84,2.47,0,4.25,3.46,5.3,5.5.88,1.7,1.35,3.31,1.61,4.57-1.96-.02-4.14-.04-6.58-.05-2.72-.01-5.13,0-7.26.03.27-1.39.8-3.27,1.9-5.21Z"/>
  </g>
</svg>