<?xml version="1.0" encoding="UTF-8"?>
<svg id="Layer_2" data-name="Layer 2" xmlns="http://www.w3.org/2000/svg" viewBox="0 0 60 60">
  <defs>
    <style>
      .cls-1 {
        fill-rule: evenodd;
        stroke-width: 0px;
      }
    </style>
  </defs>
  <g id="Layer_1-2" data-name="Layer 1">
    <g>
      <path class="cls-1" d="m27.82,46.56c1.39,3.75,1.49,7.65.51,11.22-.2.76-.45,1.5-.75,2.22-11.66-.77-22.33-8.17-26.59-19.7-.4-1.07-.72-2.15-.99-3.23.7-.42,1.43-.81,2.19-1.14.44-.21.89-.39,1.36-.56,9.82-3.52,20.69,1.49,24.27,11.19Z"/>
      <path class="cls-1" d="m46.75,52.13c-2.21,1.67-4.71,3.03-7.46,4.02-2.73.98-5.51,1.51-8.27,1.64.92-3.9.75-8.1-.75-12.14-4.08-11.07-16.48-16.78-27.68-12.76-.29.11-.57.21-.85.33-.64-5.46.4-10.88,2.83-15.63,5.75,5.29,14.23,7.29,22.12,4.46,7.9-2.84,13.09-9.73,14.05-17.43,4.95,2.09,9.29,5.59,12.36,10.17-.27.08-.53.17-.8.27-11.2,4.02-16.97,16.24-12.89,27.31,1.5,4.04,4.09,7.36,7.34,9.76Z"/>
      <path class="cls-1" d="m50.8,51.57c-.67-.36-1.32-.75-1.95-1.19-3.06-2.12-5.51-5.15-6.89-8.89-3.58-9.7,1.48-20.43,11.3-23.95.42-.15.83-.29,1.25-.4.75-.22,1.51-.38,2.27-.5.51,1.01.97,2.06,1.37,3.15,4.23,11.45.95,23.8-7.35,31.78Z"/>
      <path class="cls-1" d="m5.93,15.21c-.59-.57-1.13-1.19-1.64-1.84C7.76,8.22,12.86,4.09,19.2,1.81c6.38-2.28,13.03-2.34,19.07-.56.04.82.02,1.63-.06,2.43-.62,7.01-5.24,13.37-12.38,15.93-7.15,2.56-14.86.6-19.9-4.39h0Z"/>
    </g>
  </g>
</svg>