<?xml version="1.0" encoding="UTF-8"?>
<svg id="Layer_2" data-name="Layer 2" xmlns="http://www.w3.org/2000/svg" viewBox="0 0 60.95 60.95">
  <g id="Layer_1-2" data-name="Layer 1">
    <path d="m39.42,0H3.82C1.71,0,0,1.71,0,3.81v53.32c0,2.11,1.71,3.82,3.82,3.82h35.6c11.89,0,21.53-9.64,21.53-21.53v-17.89C60.95,9.64,51.31,0,39.42,0Zm8.81,32.2c-4.17,5.05-10.48,8.26-17.54,8.26s-13.04-3.05-17.22-7.86c-.67-.77-.51-1.95.32-2.53l3.22-2.25c.75-.53,1.76-.36,2.33.35,2.76,3.43,7,5.62,11.74,5.62s8.94-2.17,11.7-5.57c.57-.69,1.55-.86,2.29-.37l2.77,1.83c.85.56,1.04,1.74.39,2.52Z"/>
  </g>
</svg>