<?xml version="1.0" encoding="UTF-8"?>
<svg id="Layer_2" data-name="Layer 2" xmlns="http://www.w3.org/2000/svg" viewBox="0 0 58.36 35.03">
  <g id="Layer_1-2" data-name="Layer 1">
    <g>
      <path d="m58.13,21.05c-.45,1.41-1.3,2.55-2.51,3.45-1.96,1.46-4.16,2.44-6.44,3.27-.72.26-1.42.58-2.16.77-1.25.32-2.21-.4-2.36-1.59-.02-.11-.05-.22-.07-.33-.12-.6.29-.91.72-1.18.56-.33,1.17-.53,1.78-.75,1.25-.45,2.56-.76,3.76-1.35,1.02-.51,1.97-1.13,2.77-1.94.98-.99,1.19-2.18.96-3.52-.26-1.49-.96-2.8-1.66-4.11-.13-.25-.19-.51-.26-.77-.04-.15-.02-.32.08-.47.42-.64.91-1.18,1.78-1.12.37.03.69.14.98.38.77.67,1.22,1.54,1.66,2.43.4.82.74,1.68.95,2.57.14.6.26,1.21.23,1.9.04.75.04,1.57-.21,2.36Z"/>
      <path d="m19.34,25.12c-.29-.15-.6-.23-.86-.44-.43-.34-.57-.79-.63-1.28-.12-.98.04-1.96.12-2.93.05-.6.75-8.01.82-8.81.08-.89.09-1.79.13-2.68.04-.89.24-3.44.24-3.83,0-.21.02-2.62.25-3.6.09-.38.27-.72.58-.98.25-.32.6-.45.98-.52.39-.08.77-.07,1.13.11.57.21.98.85,1,1.53.01.02.09,1.89-.01,2.77.04.49-.11,1.86-.12,2.07-.06,1.08-.13,2.17-.19,3.25-.06,1.02-.21,2.03-.26,3.06-.05,1-.48,4.7-.56,5.54-.09.99-.48,4.58-.68,5.37-.12.47-.3.9-.71,1.21-.39.28-.79.38-1.23.16Z"/>
      <path d="m45.39,13.69c-.07-.78-.47-1.31-1.05-1.42-.18-.07-.36-.13-.56-.11-.71-.04-1.26.33-1.61,1.03-.34.7-.45,1.46-.68,2.18-.68,2.17-1.96,3.86-4.03,4.96-1.04.56-2.15.84-3.31.97-.37.05-.45-.08-.35-.45.1-.42.23-.84.35-1.25.27-.94.48-1.89.59-2.87.12-.96.07-1.89-.18-2.8-.41-1.52-1.94-2.32-3.55-1.56-1.12.53-2.1,1.26-2.97,2.12-1.12,1.13-1.9,2.48-2.49,3.93-.23.55-.43,1.14-.31,1.74.26,1.33.88,2.46,2.06,3.24.2.14.39.31.54.51.09.12.13.21-.01.35-.44.45-.88.89-1.27,1.38-.62.77-1.32,1.47-2,2.19-1.18,1.26-2.47,2.4-3.79,3.52-.37.31-.77.6-1.04,1.01-.27.43-.64.81-.4,1.39.17.45.48.76.88.98.43.24.87.27,1.31,0,.19-.12.4-.21.59-.33,1.7-1.06,3.23-2.31,4.63-3.73,1.67-1.7,3.3-3.44,4.59-5.45.15-.24.36-.4.65-.46.52-.11,1.05-.09,1.57-.11.85-.03,1.69-.09,2.51-.26,1.02-.21,2.02-.48,2.97-.9.94-.41,1.79-.99,2.62-1.59.38-.27,1.25-1.2,1.35-1.34.64-.8,1.23-1.64,1.55-2.63.13-.43.38-.82.42-1.29.1-.03.45-1.78.48-2.02.03-.32-.03-.62-.06-.93Zm-14.7,5.24c-.18.39-.27.82-.53,1.18-.21.28-.52.42-.81.6-.05.04-.07,0-.09-.02-.55-.52-.61-1.05-.25-1.75.39-.74,1.03-1.27,1.61-1.86.09-.09.22-.18.36-.12.09.03.1.16.12.23-.13.6-.17,1.19-.41,1.74Z"/>
      <path d="m42.06,27.11c.52.5.73,1.51.36,2.18-.11.19-.27.31-.46.41-.7.39-1.47.53-2.24.66-.91.14-1.81.28-2.71.45-.9.16-1.8.36-2.79.34-.56.07-1.12-.12-1.64-.46-.98-.63-1.08-1.56-.46-2.47.3-.43.82-.5,1.29-.57,1.28-.18,2.57-.29,3.84-.51.92-.16,1.85-.35,2.79-.45.7-.08,1.42-.15,2.02.42Z"/>
      <path d="m15.18,14.92c-.05.69-.19,1.36-.36,2.03-.17.69-.32,1.38-.49,2.07-.22.91-.56,1.76-.94,2.61-.59,1.29-1.25,2.54-1.96,3.78-.22.4-1.35,2.37-1.76,2.91-.61.82-2.7,2.73-2.96,3.01-.58.63-3.07,2.79-3.71,3.24-.38.27-.82.57-1.39.42-.56-.15-.96-.49-1.28-.94-.1-.14-.19-.29-.26-.45-.08-.18-.1-.35.02-.56.5-.86,1.23-1.51,1.96-2.15.95-.84,1.91-1.68,2.77-2.61,1.13-1.22,2.2-2.5,3.17-3.85.66-.94,1.13-1.98,1.62-3.01.46-.97.83-1.98,1.17-3,.21-.64.55-2.34.59-2.52.14-.67.09-1.37.37-2.02.25-.6.86-.95,1.51-1.01,1.07-.08,2.03,1.01,1.93,2.05Z"/>
    </g>
  </g>
</svg>