<?xml version="1.0" encoding="UTF-8"?>
<svg id="Layer_2" data-name="Layer 2" xmlns="http://www.w3.org/2000/svg" viewBox="0 0 50.19 55.75">
  <g id="Layer_1-2" data-name="Layer 1">
    <path d="m46.69,11.4L28.64.95c-2.17-1.26-4.85-1.26-7.02-.01L3.54,11.35C1.37,12.6.03,14.91.03,17.42l-.03,20.86c0,2.51,1.33,4.82,3.5,6.08l18.06,10.45c2.17,1.26,4.84,1.26,7.01.01l18.08-10.41c2.17-1.25,3.51-3.56,3.52-6.07l.02-20.86c0-2.51-1.33-4.83-3.5-6.08Zm-2.6,19.01l-26.43,15.26c-1.95,1.12-4.39-.28-4.39-2.53V12.62c0-2.25,2.44-3.66,4.39-2.53l26.43,15.26c1.95,1.12,1.95,3.94,0,5.06Z"/>
  </g>
</svg>