<?xml version="1.0" encoding="UTF-8"?>
<svg id="Layer_2" data-name="Layer 2" xmlns="http://www.w3.org/2000/svg" viewBox="0 0 49.44 47.86">
  <g id="Layer_1-2" data-name="Layer 1">
    <g>
      <path d="m43.71,22.64c-.9,2.05-1.98,4.27-3.27,6.53-.35.61-.73,1.26-1.16,1.96-2.17-.66-4.6-1.26-7.27-1.73-4.56-.8-8.64-.98-12.02-.91,3.97,4.15,7.94,8.32,11.91,12.47-2.02,2.25-4.37,4.58-7.12,6.9-3.62-3.08-7.68-7.14-11.51-12.36-3.19-4.36-5.65-8.73-7.54-12.89,4.47-1.6,11.07-3.32,19.16-3.29,7.86.03,14.33,1.71,18.82,3.32Z"/>
      <path d="m49.44,4.39c-.46,2.31-1.18,5.36-2.28,8.89-.03.1-.07.21-.1.32-5.13-2.05-12.93-4.34-22.57-4.31-9.56.04-17.23,2.35-22.17,4.32C1.18,9.91.46,6.59,0,3.88,5.61,2.02,14.3-.15,25.06,0c10.46.15,18.88,2.43,24.38,4.38Z"/>
    </g>
  </g>
</svg>