<?xml version="1.0" encoding="UTF-8"?>
<svg id="Layer_2" data-name="Layer 2" xmlns="http://www.w3.org/2000/svg" viewBox="0 0 32.51 26">
  <defs>
    <style>
      .cls-1 {
        fill-rule: evenodd;
        stroke-width: 0px;
      }
    </style>
  </defs>
  <g id="Layer_1-2" data-name="Layer 1">
    <g>
      <polygon id="Fill-1" class="cls-1" points="12.66 10 8.13 5.5 3.59 10 2.03 8.05 8.13 2 14.22 8.05 12.66 10"/>
      <polygon id="Fill-2" class="cls-1" points="25.16 0 25.16 4.77 20.32 4.77 20.32 7.23 25.16 7.23 25.16 12 27.67 12 27.67 7.23 32.51 7.23 32.51 4.77 27.67 4.77 27.67 0 25.16 0"/>
      <path id="Fill-3" class="cls-1" d="m16.67,26c-1.91,0-3.85-.28-5.77-.82-4.94-1.41-8.26-4.16-8.62-4.47l-2.28-1.95,2.1-2.75,2.28,1.95c.12.1,3.04,2.57,7.39,3.81,1.63.47,3.28.7,4.9.7,4.11,0,7.96-1.52,11.46-4.51l2.28-1.95,2.1,2.75-2.28,1.95c-4.11,3.51-8.67,5.3-13.56,5.3"/>
    </g>
  </g>
</svg>