<?xml version="1.0" encoding="UTF-8"?>
<svg id="Layer_2" data-name="Layer 2" xmlns="http://www.w3.org/2000/svg" viewBox="0 0 49.92 49.91">

  <g id="Layer_1-2" data-name="Layer 1">
    <path class="cls-1" d="m35.29,0H14.63C6.55,0,0,6.55,0,14.63v20.65c0,8.08,6.55,14.63,14.63,14.63h20.66c8.08,0,14.63-6.55,14.63-14.63V14.63c0-8.08-6.55-14.63-14.63-14.63Zm-7.69,41.54c-1.61,2.13-3.84,2.65-4.4,2.77-.86-1.44-1.72-2.88-2.58-4.33.31-.05,1.43-.27,2.27-1.29.58-.7.75-1.43.8-1.78-.02-7.48-.05-14.97-.07-22.45h5.46v21.91c.05.56.21,2.95-1.48,5.17Zm-1.25-29.87c-1.67,0-3.03-1.36-3.03-3.03s1.36-3.03,3.03-3.03,3.03,1.35,3.03,3.03-1.35,3.03-3.03,3.03Z"/>
  </g>
</svg>