<?xml version="1.0" encoding="UTF-8"?>
<svg id="Layer_2" data-name="Layer 2" xmlns="http://www.w3.org/2000/svg" viewBox="0 0 64.92 37.84">

  <g id="Layer_1-2" data-name="Layer 1">
    <path class="cls-1" d="m38.89.18c-.16.17-.17.88-.17,8.2s0,8.02.18,8.16c.28.25.51.13,1.37-.77.45-.47,1.64-1.71,2.65-2.75,1-1.05,1.97-2.06,2.16-2.26.71-.75,2.08-2.15,2.1-2.15,0,0,.02,1.13.03,2.51,0,3.07,0,2.82.16,2.99.11.11,1.04.31,1.15.25.1-.04,1.44.55,1.86.82,2.46,1.57,3.45,4.84,2.23,7.39-.38.79-.48.95-.95,1.47-2.22,2.46-5.92,2.69-8.34.51-.3-.26-2.49-3.11-5.3-6.86-2.64-3.52-4.83-6.45-4.89-6.51-.17-.21-.28-.35-.87-1.15-1.53-2.07-3.06-3.55-4.95-4.77-.92-.6-2.27-1.29-3.12-1.6-.29-.12-.63-.24-.73-.28s-.21-.08-.24-.09c-.03,0-.21-.06-.39-.12-.47-.15-2.01-.5-2.49-.57-.21-.02-.57-.07-.78-.1-.88-.13-3.47-.07-4.35.1-.14.02-.44.07-.67.1-1.78.24-4.38,1.25-6.21,2.39-2.27,1.42-4.35,3.51-5.74,5.76-.77,1.25-1.75,3.49-1.96,4.5-.03.13-.1.41-.16.63-.16.62-.29,1.32-.37,1.95-.09.72-.08,3.86,0,4.4.03.21.11.67.16,1.03.2,1.19.75,2.93,1.4,4.35.35.76,1.46,2.65,1.63,2.78.03.03.25.3.49.63.63.86,2.2,2.37,3.31,3.21.54.41,1.02.75,1.05.75s.28.15.57.32c1.02.65,2.97,1.47,4.32,1.83,1.72.45,3.06.62,5.06.63h.87l1.07-1.12c.6-.62,2.04-2.1,3.2-3.31,1.17-1.21,2.45-2.54,2.85-2.95.4-.42,1.25-1.3,1.89-1.96,1.51-1.56,1.82-1.91,1.74-2.05-.21-.36.49.53,1.9,2.42.88,1.18,1.85,2.43,2.15,2.78,4.45,5.15,11.21,7.3,17.84,5.66,6.9-1.7,12.24-7.64,13.19-14.64.03-.24.08-.52.11-.61.08-.26.08-3.3,0-3.79-.13-.79-.16-.94-.2-1.31-.08-.54-.52-2.17-.81-2.94-.69-1.87-1.39-3.08-2.89-5.08-.39-.53-2.16-2.26-2.8-2.74-.35-.26-.65-.51-.68-.54-.09-.11-1.4-.89-2.15-1.28-1.43-.75-4.21-1.69-4.93-1.65-.02,0-.19-.04-.35-.09s-.7-.12-1.19-.16c-.5-.03-.98-.08-1.06-.09-.1-.02-.26.04-.38.14-.21.18-.21.21-.21,2.88v2.71l-.77-.81c-.87-.91-4.38-4.54-5.99-6.2-.6-.61-1.14-1.1-1.23-1.1s-.22.08-.31.18Zm-20.48,14.12c1.22.12,2.62.82,3.48,1.73.55.58,7.56,9.94,7.48,9.98-.04.02-2.86.03-6.27.02-6.08,0-6.22-.02-6.97-.22-1.66-.47-2.91-1.48-3.67-3-.54-1.05-.68-1.73-.64-2.93.05-1.34.39-2.31,1.15-3.29,1.02-1.29,2.4-2.11,3.85-2.28.31-.04.6-.09.62-.11s.13-.02.24,0c.12.02.45.06.74.09Z"/>
  </g>
</svg>