<?xml version="1.0" encoding="UTF-8"?>
<svg id="Layer_2" data-name="Layer 2" xmlns="http://www.w3.org/2000/svg" viewBox="0 0 53.47 56.14">
  <g id="Layer_1-2" data-name="Layer 1">
    <g>
      <path d="m50.95,38.51c3.58-7.92,2.21-15.24,1.83-17.04-3.75-7.95-7.05-14.99-10.1-21.47-7.88.67-15.77,1.33-23.65,1.99-1.74.57-8.78,3.04-13.84,10.11-1.74.03-3.47.07-5.2.09.78,1.67,1.55,3.34,2.32,5.01-3.94,9.24-1.32,17.74-.82,19.26,2.92,6.56,5.84,13.12,8.77,19.67,7.14-.74,14.28-1.49,21.42-2.24,1.57-.33,10.23-2.32,16.26-10.35l5.51-.49c-.85-1.52-1.68-3.04-2.52-4.55Zm-18.79,8.42c-5.82.53-11.65,1.03-17.47,1.56l-.08.14c-2.43-5.35-4.87-10.7-7.3-16.05-.36-2.01-1.28-8.58,2.6-14.55,5.02-7.69,16.55-12.13,26.23-6.69,9.65,5.58,11.76,17.92,7.51,26.17-3.28,6.36-9.58,8.77-11.49,9.42Z"/>
      <path d="m31.83,38.06l-1.65,2.86c-.93-.51-1.86-1.04-2.79-1.55-1.47.55-3.55.92-5.76.05-2.51-1-4.33-3.28-4.9-5.99-1.11-.62-2.22-1.24-3.33-1.85l1.85-3.2c-.47-1.41-.69-3.28.01-5.26.95-2.65,3.28-4.63,6.09-5.32l1.82-3.14,2.63,1.52c1.99-.86,4.23-.93,6.21-.1,2.59,1.09,4.38,3.57,4.75,6.43l3.03,1.75-1.8,3.13c.51,1.42.83,3.33.12,5.37-.94,2.7-3.36,4.71-6.29,5.32Z"/>
    </g>
  </g>
</svg>