<?xml version="1.0" encoding="UTF-8"?>
<svg id="Layer_2" data-name="Layer 2" xmlns="http://www.w3.org/2000/svg" viewBox="0 0 44.24 48.72">

  <g id="Layer_1-2" data-name="Layer 1">
    <path class="cls-1" d="m43.8,32.17c-1.2,1.07-2.39,2.15-3.59,3.21-7.14,6.34-15.44,8.1-24.6,6.08-3.05-.67-5.57-2.4-6.94-5.41-1.3-2.88-1.02-3.7,1.79-5.22,3.96-2.14,8.29-3.09,12.7-3.64,6.38-.8,12.77-1.51,19.16-2.18,1.49-.15,1.84-.75,1.58-2.11-1.33-6.99-3.98-13.28-9.58-17.95C24.41-3.29,11.01-1,4.36,10.01,1.97,13.97.44,18.25.1,22.85c-.66,8.83,2.02,16.31,9.35,21.7,6.99,5.14,20.6,5.59,27.95,1,4.83-3.02,6.84-7.49,6.84-13-.15-.13-.3-.25-.44-.38ZM8.8,17.8c1.57-5,4.37-8.95,9.8-10.31,4.28-1.08,8.94.49,12.23,3.78,1.9,1.9,3.23,4.69,3.3,4.86,2.21,5.22,2.18,5.42-3.21,6.45-4.58.87-9.21,1.49-13.21,2.12-2.17-.27-3.69-.35-5.17-.66-3.25-.68-4.74-3.07-3.74-6.24Z"/>
  </g>
</svg>