<?xml version="1.0" encoding="UTF-8"?>
<svg id="Layer_2" data-name="Layer 2" xmlns="http://www.w3.org/2000/svg" viewBox="0 0 45.81 46.87">

  <g id="Layer_1-2" data-name="Layer 1">
    <g>
      <path class="cls-1" d="m24.96,31.82l-14.02,13.65c-1,.97-2.21,1.4-3.39,1.4-2.54,0-4.96-1.97-4.96-4.93,0-1.86.75-3.64,2.08-4.93l6.48-6.31c2.4-2.34,2.4-6.2,0-8.53l-6.48-6.31c-1.33-1.3-2.08-3.07-2.08-4.93,0-4.35,5.23-6.57,8.35-3.53l7.35,7.15-.13.12c-1.43,1.39-2.22,3.27-2.22,5.27s.79,3.88,2.22,5.27l6.8,6.61Z"/>
      <path class="cls-1" d="m.82,22.28l2.55,2.48c.94.92.94,2.44,0,3.35l-2.55,2.48C.3,31.1,0,31.8,0,32.53h0c0,1.71,2.06,2.58,3.28,1.39l5.71-5.55c1.09-1.06,1.09-2.81,0-3.87l-5.71-5.55C2.06,17.76,0,18.63,0,20.34H0c0,.73.3,1.43.82,1.94Z"/>
      <path class="cls-1" d="m44.99,15.56l-2.55,2.48c-.94.92-.94,2.44,0,3.35l2.55,2.48c.52.51.82,1.21.82,1.94h0c0,1.71-2.06,2.58-3.28,1.39l-5.71-5.55c-1.09-1.06-1.09-2.81,0-3.87l5.71-5.55c1.23-1.19,3.28-.32,3.28,1.39h0c0,.73-.3,1.43-.82,1.94Z"/>
      <path class="cls-1" d="m38.95,30.87c1.23,1.2,1.93,2.86,1.93,4.58,0,1.81-1.04,3.37-2.7,4.07-1.67.7-3.51.36-4.8-.9l-14.52-14.12c-1.24-1.21-1.92-2.83-1.92-4.56s.68-3.35,1.92-4.56L33.38,1.26c.85-.83,1.94-1.26,3.05-1.26.59,0,1.18.12,1.75.36,1.66.7,2.7,2.26,2.7,4.07s-.7,3.38-1.93,4.58l-6.48,6.31c-1.26,1.22-1.96,2.86-1.96,4.62s.7,3.4,1.96,4.62l6.48,6.31Z"/>
    </g>
  </g>
</svg>