<?xml version="1.0" encoding="UTF-8"?>
<svg id="Layer_2" data-name="Layer 2" xmlns="http://www.w3.org/2000/svg" viewBox="0 0 60.39 34.08">
  <defs>
    <style>
      .cls-1 {
        fill-rule: evenodd;
      }

      .cls-1, .cls-2 {
        stroke-width: 0px;
      }
    </style>
  </defs>
  <g id="Layer_1-2" data-name="Layer 1">
    <g>
      <path class="cls-1" d="m23.42,10.75h7.53v15.5h8.58c1.61,0,2.49-1.18,2.05-2.72-.89-3.08-4.62-4.29-8.2-4.29v-8.48l15.73-6.72v8.17l-7.07,2.83c3.2,1.81,5.65,3.99,6.42,6.53.98,3.43.42,7.67-2.48,10.42-2.26,2.14-4.27,1.92-6.44,2.07l-16.11.02v-.02h-.04l.04-23.32Z"/>
      <path class="cls-1" d="m12.22,10.75v13.67c0,.95-.72,1.74-1.65,1.83l-3.91-15.49H0l3.96,15.39h-.03l.02.11H1.09l1.5,7.82h2.92s0,.01,0,.01h5.21s0,0,0,0c4.97-.03,8.98-4.1,8.98-9.1v-14.22h-7.49Z"/>
      <path class="cls-1" d="m60.39,34.08h-7.53V11.88l7.53-3.05v25.25Z"/>
      <path class="cls-2" d="m59.32.98C58.71.35,57.87.01,56.98,0c0,0,0,0-.01,0h-.02s0,0,0,0c-.89,0-1.73.33-2.36.94-.63.61-.98,1.43-.99,2.31,0,.94.31,1.8.87,2.44-.31.13-.46.2-.81.33-.62.24-.92.93-.67,1.54.19.46.63.75,1.11.75.15,0,.31-.02.45-.08,1.66-.69,3.54-1.43,4.28-2,.05-.04.21-.15.3-.24.86-.79,1.15-1.47,1.16-2.78,0-.88-.34-1.63-.96-2.25Zm-2.37,3.53c-.65,0-1.17-.53-1.16-1.17,0-.64.54-1.16,1.18-1.15.65,0,1.17.53,1.16,1.17,0,.64-.54,1.16-1.18,1.15Z"/>
    </g>
  </g>
</svg>