<?xml version="1.0" encoding="UTF-8"?>
<svg id="Layer_2" data-name="Layer 2" xmlns="http://www.w3.org/2000/svg" viewBox="0 0 30.8 44">

  <g id="Layer_1-2" data-name="Layer 1">
    <g>
      <path class="cls-1" d="m14.67.02C6.67.38.23,7.17,0,15.45c-.1,3.19.75,6.34,2.44,9.08l12.73,19.36s.06.07.1.09c.04.02.08.03.13.03s.09-.01.13-.03c.04-.02.07-.05.1-.09l12.73-19.36c1.64-2.59,2.49-5.58,2.44-8.61C30.8,6.86,23.5-.42,14.67.02Zm.73,26.72c-5.81,0-10.51-4.87-10.51-10.88S9.59,4.99,15.4,4.99s10.51,4.87,10.51,10.88-4.7,10.88-10.51,10.88h0Z"/>
      <path class="cls-1" d="m17.75,7.87l-4.78,1.09c-.06.02-.11.05-.15.1-.04.05-.06.11-.05.17v12.93c0,.06.03.11.06.16.04.05.08.08.14.11l4.78,1.05s.08,0,.12,0c.04,0,.08-.03.11-.05.03-.03.06-.06.07-.1.02-.04.02-.08.02-.12v-15.08s0-.08-.03-.11c-.02-.04-.04-.07-.07-.09-.03-.03-.07-.04-.11-.05-.04,0-.08-.01-.12,0Z"/>
    </g>
  </g>
</svg>