<?xml version="1.0" encoding="UTF-8"?>
<svg id="Layer_2" data-name="Layer 2" xmlns="http://www.w3.org/2000/svg" viewBox="0 0 66.84 66.76">
  <g id="Layer_1-2" data-name="Layer 1">
    <g>
      <path d="m56.13,22.56c-.09-2.25-.49-9.29-6-15.42-4.5-5-9.92-6.61-12.08-7.14H0v66.69h14.21v-18.99c7.46-.05,14.93-.1,22.4-.15,2.18-.39,8.35-1.78,13.37-7.22,6.46-6.99,6.24-15.51,6.15-17.77Zm-14.35.15c-.02,1.44-.04,3.57-1.22,5.93-1.42,2.85-3.71,4.36-4.86,5.01H14.2c0-7.24.01-14.48.01-21.72h21.49c1.11.54,3.41,1.87,4.86,4.56,1.26,2.33,1.23,4.52,1.22,6.22Z"/>
      <path d="m14.21,11.93v21.72h-.01c0-7.24.01-14.48.01-21.72Z"/>
      <path d="m14.21,11.93v21.72h-.01c0-7.24.01-14.48.01-21.72Z"/>
      <rect x="46.48" y="46.41" width="20.35" height="20.35"/>
    </g>
  </g>
</svg>