<?xml version="1.0" encoding="UTF-8"?>
<svg id="Layer_2" data-name="Layer 2" xmlns="http://www.w3.org/2000/svg" viewBox="0 0 60.38 60.38">

  <g id="Layer_1-2" data-name="Layer 1">
    <path class="cls-1" d="m60.29,28.04c-.12-1.93-.44-3.81-.93-5.62-1.02-3.87-2.8-7.44-5.18-10.54-.85-1.13-1.8-2.2-2.81-3.2-1.95-1.92-4.16-3.58-6.57-4.91-1.05-.59-2.15-1.11-3.28-1.57-1.95-.79-4.01-1.39-6.14-1.75-1.22-.22-2.47-.36-3.75-.41-.47-.03-.96-.04-1.44-.04C19.38,0,9.89,5.69,4.56,14.24c-.67,1.06-1.27,2.17-1.79,3.32-.83,1.78-1.48,3.65-1.94,5.6-.28,1.17-.5,2.36-.62,3.58-.14,1.13-.21,2.28-.21,3.45,0,1.91.18,3.78.52,5.59.26,1.41.62,2.79,1.09,4.12,1.27,3.79,3.29,7.24,5.88,10.18,1.25,1.44,2.65,2.76,4.16,3.93,5.12,3.99,11.55,6.37,18.54,6.37,16.67,0,30.19-13.51,30.19-30.19,0-.72-.03-1.44-.09-2.15ZM29.54,3.21c-4.91,6.46-12.55,10.73-21.19,11.11C13.13,7.74,20.83,3.4,29.54,3.21ZM7.06,17.86c11.13,0,20.93-5.75,26.6-14.44,2.53.31,4.94.99,7.19,1.96-3.25,12-14.22,20.83-27.25,20.83-3.44,0-6.74-.62-9.79-1.74.49-2.33,1.3-4.56,2.37-6.62.29.01.59.01.88.01Zm-3.87,12.33c0-.74.03-1.48.1-2.2,3.23,1.11,6.7,1.72,10.31,1.72,14.36,0,26.53-9.6,30.42-22.71,2.4,1.43,4.56,3.23,6.39,5.31-4.83,15.19-19.04,26.19-35.83,26.19-3.65,0-7.18-.52-10.52-1.5-.57-2.18-.87-4.46-.87-6.81Zm2.25,10.79c2.94.67,6,1.02,9.14,1.02,17.47,0,32.43-10.95,38.35-26.36,2.12,3.3,3.54,7.09,4.04,11.17-8.72,14.26-24.44,23.78-42.39,23.78-.71,0-1.41,0-2.11-.05-3-2.59-5.42-5.86-7.03-9.56Zm24.75,16.21c-4.6,0-8.92-1.15-12.71-3.18,16.16-.87,30.41-8.99,39.58-21.15-1.34,13.66-12.86,24.33-26.87,24.33Z"/>
  </g>
</svg>