<?xml version="1.0" encoding="UTF-8"?>
<svg id="Layer_2" data-name="Layer 2" xmlns="http://www.w3.org/2000/svg" viewBox="0 0 64.55 64.56">

  <g id="Layer_1-2" data-name="Layer 1">
    <path class="cls-1" d="m29.14,31.45h-1.64c-.79-.05-1.56.18-2.19.65-.23.22-.42.51-.55.82-.12.32-.17.66-.15,1,0,.36.08.72.24,1.05.13.27.32.51.55.71l.89.47,1.23.17h1.17l.53-.14-.08-4.73Zm0,0h-1.64c-.79-.05-1.56.18-2.19.65-.23.22-.42.51-.55.82-.12.32-.17.66-.15,1,0,.36.08.72.24,1.05.13.27.32.51.55.71l.89.47,1.23.17h1.17l.53-.14-.08-4.73Zm-17.64,0h-1.64c-.79-.05-1.57.18-2.19.65-.24.22-.43.51-.55.82-.12.32-.17.66-.15,1,0,.36.08.72.24,1.05.13.27.32.51.55.71l.88.47,1.24.17h1.17l.53-.14-.08-4.73Zm17.64,0h-1.64c-.79-.05-1.56.18-2.19.65-.23.22-.42.51-.55.82-.12.32-.17.66-.15,1,0,.36.08.72.24,1.05.13.27.32.51.55.71l.89.47,1.23.17h1.17l.53-.14-.08-4.73Zm0,0h-1.64c-.79-.05-1.56.18-2.19.65-.23.22-.42.51-.55.82-.12.32-.17.66-.15,1,0,.36.08.72.24,1.05.13.27.32.51.55.71l.89.47,1.23.17h1.17l.53-.14-.08-4.73Zm-17.64,0h-1.64c-.79-.05-1.57.18-2.19.65-.24.22-.43.51-.55.82-.12.32-.17.66-.15,1,0,.36.08.72.24,1.05.13.27.32.51.55.71l.88.47,1.24.17h1.17l.53-.14-.08-4.73ZM53.92,0H10.63C4.76,0,0,4.76,0,10.63v43.3c0,5.87,4.76,10.63,10.63,10.63h43.29c5.87,0,10.63-4.76,10.63-10.63V10.63c0-5.87-4.76-10.63-10.63-10.63Zm-2.19,23.99c.87,0,1.58.71,1.58,1.58s-.71,1.57-1.58,1.57-1.58-.7-1.58-1.57.71-1.58,1.58-1.58Zm-1.44,2.87c.65,0,1.2.38,1.44.94.24-.56.79-.94,1.44-.94.86,0,1.57.71,1.57,1.58s-.71,1.57-1.57,1.57c-.64,0-1.2-.38-1.44-.92-.24.54-.8.92-1.44.92-.86,0-1.57-.7-1.57-1.57s.71-1.58,1.57-1.58Zm-16.03,0c.87,0,1.57.71,1.57,1.58s-.7,1.57-1.57,1.57-1.58-.7-1.58-1.57.71-1.58,1.58-1.58Zm-18.74,0c.64,0,1.2.38,1.44.94.24-.56.78-.94,1.43-.94.87,0,1.58.71,1.58,1.58s-.71,1.57-1.58,1.57c-.64,0-1.19-.38-1.43-.92-.24.54-.8.92-1.44.92-.87,0-1.57-.7-1.57-1.57s.7-1.58,1.57-1.58Zm6.05,8.41c.01.48-.12.94-.39,1.34-.25.39-.61.71-1.04.91-1.12.51-2.38.75-3.61.68l-2.13-.17v2.53h-2.82v-2.73c-.64.2-1.3.29-1.97.29-.75,0-1.49-.08-2.22-.26-.66-.16-1.26-.42-1.82-.78-.46-.29-.85-.68-1.14-1.14-.29-.54-.45-1.15-.44-1.76-.01-.62.14-1.22.43-1.76.29-.55.72-1.03,1.23-1.4,1.49-.88,3.17-1.33,4.9-1.29,1.45,0,3.17.29,3.59.59h.17v5.21c0,.16.05.3.14.42l.46.38.72.24h1.81l.65-.24.46-.31c.07-.12.12-.26.12-.41l.09-5.29h2.81v4.95Zm38.99,0c.01.48-.12.94-.38,1.34-.25.39-.62.71-1.05.91-1.12.52-2.36.76-3.61.68l-1.98-.18-1.41-.49h-.37c-1.11.51-2.36.75-3.58.67l-1.98-.18-1.41-.49h-.12c-1.05.51-2.24.74-3.42.67l-1.86-.17-1.44-.5h-.12c-1.11.51-2.35.74-3.58.67l-2.13-.17v2.53h-2.81v-2.73c-.64.2-1.3.29-1.98.29-.74,0-1.49-.08-2.22-.26-.65-.16-1.26-.42-1.81-.78-.46-.3-.84-.68-1.14-1.13-.3-.55-.45-1.16-.45-1.77-.01-.62.15-1.22.44-1.76.29-.55.71-1.03,1.22-1.4,1.49-.88,3.17-1.33,4.9-1.29,1.45,0,3.17.29,3.59.59h.18v5.21c0,.16.04.3.14.42l.46.38.71.24h1.73l.72-.24.47-.31c.08-.12.13-.26.13-.41v-5.21h2.81v5.21c-.01.15,0,.29.06.42l.37.3.64.24h1.61l.63-.56.41-.32c.05-.13.07-.26.05-.4v-5.14h2.81v5.21c0,.16.05.3.14.42l.46.38.72.24h1.73l.72-.24.47-.32c.08-.11.12-.25.12-.4v-5.2h2.98v5.2c0,.15.06.3.15.42l.46.39.71.24h1.65l.71-.24.47-.32c.09-.11.13-.25.13-.4v-5.21h3.15v4.95Zm-33.06-3.82c-.79-.05-1.56.18-2.19.65-.23.22-.42.51-.55.82-.12.32-.17.66-.15,1,0,.36.08.72.24,1.05.13.27.32.51.55.71l.89.47,1.23.17h1.17l.53-.14-.08-4.73h-1.64Zm-17.64,0c-.79-.05-1.57.18-2.19.65-.24.22-.43.51-.55.82-.12.32-.17.66-.15,1,0,.36.08.72.24,1.05.13.27.32.51.55.71l.88.47,1.24.17h1.17l.53-.14-.08-4.73h-1.64Zm19.28,0h-1.64c-.79-.05-1.56.18-2.19.65-.23.22-.42.51-.55.82-.12.32-.17.66-.15,1,0,.36.08.72.24,1.05.13.27.32.51.55.71l.89.47,1.23.17h1.17l.53-.14-.08-4.73Zm0,0h-1.64c-.79-.05-1.56.18-2.19.65-.23.22-.42.51-.55.82-.12.32-.17.66-.15,1,0,.36.08.72.24,1.05.13.27.32.51.55.71l.89.47,1.23.17h1.17l.53-.14-.08-4.73Z"/>
  </g>
</svg>