<?xml version="1.0" encoding="UTF-8"?>
<svg id="Layer_2" data-name="Layer 2" xmlns="http://www.w3.org/2000/svg" viewBox="0 0 58.48 47.95">
  <g id="Layer_1-2" data-name="Layer 1">
    <path d="m50.99,22.83l-.75,2.47-26.99-9.81L10.46.35c-.49-.58-1.43-.41-1.69.31L.06,25c-.26.72.36,1.44,1.11,1.31l16.04-2.9c-2.3,2.6-3.7,6.04-3.7,9.78,0,8.15,6.6,14.76,14.76,14.76s14.76-6.61,14.76-14.76c0-.82-.07-1.63-.2-2.42l5.18,1.89-.77,2.52c-.16.52.14,1.08.66,1.24l5.55,1.68c.52.16,1.07-.14,1.23-.66l3.76-12.35c.16-.52-.14-1.08-.66-1.23l-5.55-1.69c-.52-.16-1.08.14-1.24.66Zm-24.24,17.64c-2.89-.57-5.22-2.9-5.79-5.79-.93-4.75,2.7-8.92,7.29-8.92.32,0,.63.02.93.07,1.12.13,2.16.52,3.07,1.11,2.06,1.31,3.43,3.62,3.43,6.25,0,4.6-4.18,8.22-8.94,7.28Z"/>
  </g>
</svg>