<?xml version="1.0" encoding="UTF-8"?>
<svg id="Layer_2" data-name="Layer 2" xmlns="http://www.w3.org/2000/svg" viewBox="0 0 65.23 33.67">

  <g id="Layer_1-2" data-name="Layer 1">
    <g>
      <path class="cls-1" d="m62.48.09c-1.57-.4-3.52.56-3.96,2.3l-4.91,19.31-4.5-17.68c-.04-.2-.2-.77-.23-.8-.36-.95-1.01-1.76-1.85-2.34-.85-.58-1.85-.89-2.88-.89-2.17,0-4.04,1.33-4.74,3.23,0,.01-.09.26-.12.37,0,.02-.01.04-.02.05l-4.58,18.1S29.84,2.68,29.83,2.66l-.02-.06s0,0,0,0c-.18-.73-.6-1.38-1.2-1.85C28.01.27,27.27.01,26.51,0c0,0-.01,0-.02,0h-5.44c.98.66,1.53,1.61,1.75,2.72l1.03,4.05s5.91,23.19,5.92,23.21c.31,1.06.96,2,1.86,2.67s2,1.03,3.12,1.03c2.28,0,4.16-1.48,4.86-3.48,0,0-.05-.03,0,0l4.56-17.94s4.45,17.74,4.51,17.75c.63,2.11,2.59,3.68,4.95,3.68,1.2,0,2.37-.41,3.3-1.16.93-.75,1.56-1.8,1.79-2.96l6.45-25.48c.44-1.75-.92-3.53-2.67-3.98Z"/>
      <path class="cls-1" d="m0,3.38c0,2.04,1.8,3.38,3.41,3.38h7.45l.02,23.49c0,.45.08.89.26,1.3.17.41.43.79.76,1.11.33.32.71.57,1.14.74.43.17.89.26,1.35.26s.92-.09,1.35-.26c.43-.17.82-.42,1.14-.74.33-.32.58-.69.76-1.11.17-.41.26-.86.26-1.3l-.02-23.49h5.28l-1.06-4.11S21.52-.09,18.3,0C18.3,0,16.61,0,17.35,0H3.35C1.74,0,0,1.43,0,3.38Z"/>
    </g>
  </g>
</svg>