<?xml version="1.0" encoding="UTF-8"?>
<svg id="Layer_2" data-name="Layer 2" xmlns="http://www.w3.org/2000/svg" viewBox="0 0 46.8 47.6">
  <g id="Layer_1-2" data-name="Layer 1">
    <g>
      <path d="m46.8,24.2c0,11.94-8.96,21.8-20.52,23.22-.94.12-1.9.18-2.88.18-4.5,0-8.71-1.27-12.28-3.48-.25-.15-.49-.31-.73-.47-4.37-2.93-7.7-7.29-9.31-12.41-.7-2.22-1.08-4.59-1.08-7.04C0,11.62,9.93,1.36,22.38.83c.34-.02.68-.03,1.02-.03.65,0,1.3.03,1.94.09,1.24.09,2.45.29,3.62.58.56.13,1.11.29,1.65.47-1.41,2.05-1.81,4.65-1.09,7.03-.36-.15-.72-.29-1.09-.4-.92-.3-1.87-.52-2.86-.64h-.01c-.7-.1-1.43-.15-2.16-.15-.21,0-.42,0-.63.01-8.78.33-15.79,7.55-15.79,16.41,0,3.36,1.01,6.48,2.75,9.08.59.58,1.11,1.24,1.52,1.96.73,1.27,1.15,2.75,1.15,4.33,0,.75-.1,1.48-.28,2.18,1.5-1.23,3.42-1.97,5.51-1.97.23,0,.46.01.68.03.93.07,1.81.29,2.64.63.8.12,1.62.18,2.45.18,9.07,0,16.42-7.35,16.42-16.42,0-1.37-.17-2.71-.49-3.98-.21-.86-.49-1.69-.83-2.49-.46-1.06-1.03-2.07-1.69-3-.24-.34-.49-.67-.76-.99,2.6,0,4.91-1.22,6.41-3.11.33.46.65.94.94,1.43.64,1.04,1.19,2.13,1.65,3.27.37.89.68,1.8.93,2.74.54,1.95.82,4.01.82,6.13Z"/>
      <path d="m43,5.86c.11,1.43-.26,2.86-1.07,4.06-.4.59-.9,1.12-1.51,1.57-.61.45-1.28.78-1.98.98-.21.07-.89.21-1.02.22-.11.02-.7.07-.9.07-.53,0-1.04-.06-1.53-.19-.51-.12-1-.31-1.45-.55,0,0-.02-.67-.01-.74-.01-.01.07-.91.18-1.32.44-1.84,1.67-3.36,3.32-4.19.16-.09.8-.35.96-.4.61-.2,1.26-.3,1.94-.3,1.07,0,2.09.27,2.98.74.03.01.06.02.09.05Z"/>
      <path d="m37.21,4.58c-.21.09-.43.19-.63.29-2.13,1.13-3.7,3.16-4.2,5.58h0s-.01,0-.01,0c-.19.04-.63.12-.65.12-.26-.28-.48-.59-.67-.91-.6-.97-.94-2.1-.94-3.32,0-1.55.55-2.98,1.47-4.08.31-.38,1.17-1.06,1.21-1.09.14-.11,1.08-.66,1.42-.79.13-.06.57-.2.65-.22.18-.05.69-.16.75-.17,0,0,.24.28.35.43.92,1.24,1.33,2.71,1.25,4.15Z"/>
    </g>
  </g>
</svg>