<?xml version="1.0" encoding="UTF-8"?>
<svg id="Layer_2" data-name="Layer 2" xmlns="http://www.w3.org/2000/svg" viewBox="0 0 35.21 36.68">

  <g id="Layer_1-2" data-name="Layer 1">
    <g>
      <path class="cls-1" d="m3.47,0c.46.79.91,1.59,1.38,2.37,1.05,1.77,2.13,3.53,3.19,5.29.89,1.46,1.78,2.91,2.66,4.37,1.05,1.73,2.09,3.48,3.13,5.21.88,1.46,1.77,2.91,2.66,4.37,1.06,1.75,2.11,3.5,3.16,5.25.86,1.43,1.73,2.87,2.6,4.3,1.02,1.68,2.08,3.33,3.05,5.04.31.56.81.45,1.18.46,2.87.05,5.75.03,8.74.03-.27-.47-.49-.88-.73-1.28-1.44-2.34-2.89-4.68-4.34-7.02-1.49-2.39-2.97-4.78-4.45-7.18-.57-.93-1.14-1.87-1.68-2.81-.07-.12-.08-.36,0-.48.96-1.6,1.92-3.2,2.89-4.79,1.16-1.89,2.33-3.78,3.49-5.68,1.39-2.28,2.79-4.56,4.17-6.84.12-.19.19-.41.28-.61-2.91,0-5.82,0-8.72,0-2.28,4.27-4.56,8.54-6.85,12.84-.86-1.56-1.7-3.08-2.52-4.61-1.11-2.05-2.2-4.11-3.31-6.17-.37-.69-.76-1.37-1.15-2.06H3.47Z"/>
      <path class="cls-1" d="m13.07,20.27c-4.35,5.45-8.67,10.87-13.07,16.39h.55c3.66,0,7.31,0,10.96,0,.34,0,.51-.1.67-.41,1.55-3.12,3.12-6.22,4.66-9.34.07-.14.05-.38-.03-.51-1.14-1.9-2.29-3.79-3.45-5.68-.08-.13-.17-.26-.3-.45Z"/>
    </g>
  </g>
</svg>