<?xml version="1.0" encoding="UTF-8"?>
<svg id="Layer_2" data-name="Layer 2" xmlns="http://www.w3.org/2000/svg" viewBox="0 0 52.12 51.86">

  <g id="Layer_1-2" data-name="Layer 1">
    <path class="cls-1" d="m15.39,51.75c-.46-.15-.83-.49-1.02-.93-.15-.37-.19-.77-.12-1.16l.06-.2-5.93-5.89-5.93-5.9-.5.03c-.43.02-.55,0-.83-.1-1.31-.5-1.52-2.39-.35-3.14l.26-.16v-16.72s-.21-.12-.21-.12c-.35-.24-.61-.58-.74-.98-.26-.85.14-1.76.94-2.15.23-.14.51-.19.78-.17.23,0,.48.01.54.02.1.01,1.41-1.26,6.05-5.88l5.93-5.89-.06-.21c-.07-.39-.03-.8.12-1.17.58-1.24,2.39-1.39,3.12-.26l.18.27h16.74l.27-.34c.31-.43.8-.68,1.32-.69.25-.03.51,0,.75.1.82.31,1.32,1.23,1.13,2.06l-.05.23,5.36,5.34c1.98,1.97,3.95,3.94,5.94,5.91l.58.56.31-.05c.8-.14,1.6.28,1.93,1.02.36.79.1,1.77-.58,2.22l-.28.18v8.36s0,8.36,0,8.36l.26.17c.34.24.59.6.7,1,.22.83-.17,1.7-.94,2.09-.23.12-.35.13-.87.13h-.6l-5.91,5.89-5.91,5.89.05.23c.12.59-.06,1.21-.49,1.64-.72.71-1.87.71-2.58,0-.07-.07-.13-.14-.19-.22l-.2-.27h-16.75l-.18.27c-.2.31-.4.46-.82.64-.41.16-.87.17-1.28.02h0Zm18.02-2.51c-.64-.43-1.29-.85-1.94-1.27l-3.16-2.05-1.28-.83-.25.12c-.46.16-.97.16-1.43,0l-.25-.12-.51.35c-.28.19-1.55,1.01-2.81,1.83-3.04,1.97-3.03,1.96-3.03,1.99,0,.02,3.31.03,7.36.03s7.34-.02,7.31-.05h0Zm-14.39-2.07c1.65-1.08,3.31-2.15,4.98-3.21.15-.09.25-.2.25-.24s-.26-.18-.56-.31c-2.91-1.2-5.81-2.4-8.72-3.59-.35-.15-.36-.1-.13.96.11.52.26,1.22.33,1.55l.4,1.89.53,2.49c.35,1.69.31,1.57.59,1.68.1.04.21.07.32.07.05-.01.96-.58,2.02-1.27h0Zm16.39,1.21l.26-.09.22-1.04.66-3.12c.24-1.14.55-2.57.68-3.17.19-.85.23-1.11.18-1.16-.07-.07-.21-.02-2.91,1.1-1.96.81-3.91,1.62-5.87,2.42-.67.27-.8.35-.75.46.02.04.25.21.51.37.46.28,2.25,1.43,5.34,3.44.75.49,1.37.88,1.38.88s.14-.04.29-.09h0Zm-20.99-2.07l-.6-2.84c-.17-.8-.34-1.6-.51-2.4l-.18-.87-.35-.17c-.41-.2-.73-.52-.92-.93-.13-.28-.14-.28-.46-.35-.75-.15-1.5-.31-2.24-.47l-3.35-.71c-.5-.1-1-.21-1.49-.33-.03-.02-.05-.01-.05,0,0,.04,10.4,10.4,10.42,10.38,0,0-.11-.6-.26-1.32h0Zm33.03-8.64c.21-.22.36-.4.34-.4-.03,0-.67.13-1.44.3-1.93.41-3.86.81-5.8,1.21-.17.03-.2.06-.29.3-.13.37-.49.74-.91.96l-.36.18-.12.57c-.49,2.28-.97,4.56-1.43,6.84,0,.05,8.68-8.58,10.01-9.95h0Zm-22.39,4.38c.6-.41,1.42-.38,2.11.06.16.11-.17.23,2.97-1.07,2.05-.85,4.1-1.69,6.15-2.53l.46-.19.06-.27c.1-.4.31-.76.61-1.04.25-.2.7-.4.92-.4.16,0,.18-.03.59-1.04l.75-1.8c.57-1.36,1.13-2.71,1.69-4.07l.8-1.93.3-.73-.17-.2c-.25-.29-.4-.65-.42-1.03-.04-.4.05-.79.27-1.13l.17-.26-.56-1.35c-.55-1.33-1.11-2.66-1.66-3.99l-.83-2c-.84-2.01-.73-1.81-.98-1.85-.53-.09-.98-.41-1.25-.87-.11-.18-.18-.37-.23-.57l-.03-.23-1.24-.51-2.22-.91-2.24-.92c-.66-.27-1.31-.54-1.97-.82-1.8-.77-1.77-.76-1.93-.65-.32.23-.71.35-1.11.33-.44,0-.5,0-.86-.2l-.39-.2-.92.37c-.5.2-1.91.78-3.13,1.29-3.85,1.59-4.17,1.72-4.79,1.97-.6.24-.61.25-.65.45-.13.73-.78,1.38-1.46,1.47-.11.02-.23.05-.25.09-.11.23-.22.47-.31.72-1.08,2.64-2.17,5.28-3.28,7.91l-.31.75.12.15c.19.24.35.86.32,1.22-.05.35-.18.69-.38.99-.07.1-.03.23.99,2.67.82,1.96,1.63,3.91,2.44,5.87.12.32.26.63.41.93.03.03.15.08.26.09.69.09,1.32.74,1.45,1.48.02.14.08.23.15.26l5.04,2.07c.97.4,2.76,1.14,3.58,1.48.35.14.66.26.69.27.1-.03.19-.07.27-.13h0Zm-.25-13.41v-5.96h-4.04v-1.09c0-1.24-.04-1.16.5-1.16.91,0,2.12-.24,2.73-.55.76-.39,1.29-1.15,1.46-2.13l.09-.5h2.77v17.32h-3.5v-5.96Zm-12.66,8.57s0-.13-.05-.21c-.18-.4-.34-.8-.51-1.2-.56-1.37-1.13-2.73-1.7-4.1-.25-.59-.7-1.7-1.02-2.49-.52-1.29-.63-1.5-.73-1.5-.02,0-.77,1.13-1.67,2.5l-2.36,3.61-.73,1.11.1.29.1.29.44.09c2.25.46,7.17,1.49,7.6,1.59.42.1.5.1.53.02h0Zm28.95-.14l2.73-.58,3.31-.7,1.37-.29.12-.27c.06-.15.1-.3.08-.33l-1.49-2.3-2.28-3.53c-.46-.71-.87-1.35-.92-1.42l-.09-.12-.08.19c-1.03,2.51-2.07,5.01-3.12,7.51-.67,1.6-.8,1.94-.76,2,.04.07.07.07,1.12-.16h0ZM4.7,30.1c1.13-1.72,2.05-3.18,2.04-3.24-.02-.11-.05-.22-.09-.33-.11-.39-.11-.81,0-1.2.04-.12.1-.26.11-.3.02-.05-.57-1-1.49-2.4l-2.04-3.11c-.19-.3-.38-.59-.59-.87-.06-.07-.07,1.17-.07,7.25,0,4.04.02,7.33.04,7.33.02,0,.96-1.41,2.08-3.13h0Zm44.87-4.22c0-4.04-.02-7.35-.04-7.35-.02,0-.98,1.39-2.14,3.1l-2.11,3.09.08.22c.13.34.11,1.14-.03,1.45l-.11.24,1.53,2.35,2.13,3.29c.33.52.63.94.65.94.02,0,.04-3.31.04-7.35h0Zm-40.4-3.96c.98-2.37,1.26-3.03,1.97-4.7,1.01-2.39,1.06-2.53,1-2.59-.07-.07-.2-.04-3.09.57l-5.33,1.12c-.11.02-.16.09-.24.32l-.1.29.67,1c.55.83,2.83,4.3,3.81,5.8.15.23.27.36.33.35.05-.01.41-.8.98-2.17h0Zm36.41-.45c.97-1.42,1.95-2.84,2.93-4.26l.25-.36-.11-.25c-.1-.23-.13-.26-.4-.31-.29-.07-2.31-.49-5.29-1.12-2.83-.6-2.89-.61-2.96-.54-.07.07.06.4.97,2.53.46,1.09.79,1.86,1.95,4.67.87,2.1.83,1.99.94,1.99.06,0,.64-.8,1.7-2.36h0ZM7.19,14.01l3.11-.65c.78-.16,1.43-.31,1.46-.34.05-.08.08-.17.11-.26.1-.31.67-.87.98-.96.14-.04.26-.12.28-.18.03-.06.2-.81.38-1.67l.76-3.63c.24-1.14.43-2.08.43-2.08-.02-.02-10.43,10.33-10.42,10.36,0,.02.28-.03.61-.1l2.31-.49Zm35.49-4.6c-1.73-1.74-3.48-3.46-5.23-5.17-.02.02.28,1.46.86,4.21.18.84.41,1.91.5,2.37l.18.84.35.18c.4.17.72.49.89.88.11.22.21.35.28.37l1.7.35c2.82.59,5.19,1.09,5.41,1.13.12.03.23.04.24.04-1.72-1.75-3.45-3.48-5.19-5.21h0Zm-27.37,2.49c.17-.08.52-.23.79-.34l1.26-.52c2.19-.9,4.39-1.8,6.59-2.7.17-.07.31-.16.31-.2,0-.05-.61-.48-1.72-1.21l-3.65-2.37-1.91-1.24-.22.09c-.1.04-.19.09-.28.15-.03.03-.2.71-.37,1.51l-1.32,6.25c-.19.89-.19.89.52.56h0Zm22.15.1c-.02-.15-.61-2.97-.89-4.26-.17-.81-.41-1.93-.52-2.49-.24-1.2-.33-1.64-.38-1.68-.09-.05-.18-.09-.28-.13l-.25-.09-1.11.72c-1.9,1.23-3.81,2.46-5.71,3.69-.25.16-.45.33-.45.37,0,.09.21.19,1.62.75.57.23,1.57.64,2.23.91l2.38.98c.65.26,1.62.67,2.16.89.92.38,1.22.47,1.19.33h0Zm-11.38-5.46c.35,0,.52.03.71.12l.25.12.87-.57,3.21-2.08,2.34-1.52h-3.69c-2.03-.02-5.36-.02-7.39-.01h-3.7s2.07,1.35,2.07,1.35l3.21,2.08,1.14.74.25-.12c.19-.09.36-.12.72-.12h0Z"/>
  </g>
</svg>