<?xml version="1.0" encoding="UTF-8"?>
<svg id="Layer_2" data-name="Layer 2" xmlns="http://www.w3.org/2000/svg" viewBox="0 0 40.99 38.25">
  <g id="Layer_1-2" data-name="Layer 1">
    <g>
      <path d="m18.43,2.45l-8.13,20.29C4.52,22.19,0,17.32,0,11.39,0,5.1,5.1,0,11.4,0c2.65,0,5.1.91,7.03,2.45Z"/>
      <path d="m40.79,3.74l-13.15,32.8c-.41,1.04-1.41,1.71-2.53,1.71H8.11c-1.93,0-3.25-1.95-2.53-3.74l4.72-11.77c.36.03.73.05,1.1.05,6.29,0,11.39-5.1,11.39-11.4,0-3.63-1.7-6.87-4.36-8.94l.3-.74c.42-1.03,1.42-1.71,2.53-1.71h17c1.93,0,3.25,1.95,2.53,3.74Z"/>
    </g>
  </g>
</svg>